<?xml version="1.0" encoding="utf-8"?>
<!-- Generator: Adobe Illustrator 23.0.1, SVG Export Plug-In . SVG Version: 6.00 Build 0)  -->
<svg version="1.1" id="Layer_1" xmlns="http://www.w3.org/2000/svg" xmlns:xlink="http://www.w3.org/1999/xlink" x="0px" y="0px"
	 viewBox="0 0 512.79 113.58" style="enable-background:new 0 0 512.79 113.58;" xml:space="preserve">
<style type="text/css">
	.st0{fill:#004D8D;}
	.st1{fill:#004277;}
	.st2{fill:#FFFFFF;}
</style>
<g>
	<path class="st0" d="M167.91,46.87c-5.2,0-10.32,0.09-15.26,0.53V79h-12.47V37.44c7.9-1.44,19.38-2.78,27.73-2.78V46.87z
		 M221.02,53.33c0,3.95-0.18,5.11-0.8,8.7h-30.07c1.62,4.57,5.84,7.45,12.21,7.45c3.5,0,7.99-0.72,15.26-2.24l1.7,9.78
		c-6.73,2.16-12.38,3.32-17.32,3.32c-16.51,0-24.95-10.06-24.95-22.89c0-13.91,9.78-22.88,22.7-22.88
		C211.87,34.57,220.84,42.11,221.02,53.33 M189.61,53.15h20.28c-0.27-5.3-4.31-8.89-9.87-8.89
		C194.46,44.26,190.78,47.77,189.61,53.15 M261.05,78.91c-4.31,0.98-6.55,1.44-12.3,1.44c-10.5,0-16.51-6.2-16.51-17.41v-40.5h12.47
		v13.58h13.55v11.13h-13.55v14.54c0,4.76,1.88,7.54,6.73,7.54c2.6,0,4.93-0.18,8.43-0.62L261.05,78.91z M318.17,57.19
		c0,14-9.7,23.43-24.14,23.43c-14.54,0-24.32-9.42-24.32-23.43c0-13.82,9.78-23.06,24.32-23.06
		C308.47,34.12,318.17,43.36,318.17,57.19 M305.87,57.19c0-7.18-4.76-11.94-11.84-11.94c-7.09,0-11.94,4.76-11.94,11.94
		c0,7.36,4.85,12.29,11.94,12.29C301.11,69.48,305.87,64.54,305.87,57.19 M357.24,46.87c-5.2,0-10.32,0.09-15.25,0.53V79h-12.48
		V37.44c7.9-1.44,19.39-2.78,27.73-2.78V46.87z M412.49,51.17V79h-12.47V54.85c0-5.47-3.59-8.88-8.61-8.88
		c-3.14,0-6.56,0.27-10.14,0.63V79h-12.48V36.73c5.57-0.81,17.32-2.06,25.58-2.06C405.22,34.66,412.49,41.21,412.49,51.17
		 M470.04,36.73V79h-10.48l-1.16-3.05c-3.5,2.69-8.54,4.4-13.75,4.4c-11.94,0-20.64-8.89-20.64-23.07
		c0.27-13.64,7.9-22.61,21.54-22.61C454.7,34.66,459.73,35.38,470.04,36.73 M436.22,57.63c0,7.18,4.13,12.3,10.5,12.3
		c3.59,0,7.17-1.17,10.86-4.22V45.52c-2.87-0.27-6.1-0.53-10.05-0.53C439.18,44.99,436.22,50.46,436.22,57.63 M509.66,46.87
		c-5.21,0-10.32,0.09-15.26,0.53V79h-12.47V37.44c7.9-1.44,19.38-2.78,27.73-2.78V46.87z"/>
	<path class="st0" d="M111.17,25.44c0-11.99-9.81-21.8-21.8-21.8H26.55c-11.99,0-21.8,9.81-21.8,21.8v62.82
		c0,11.99,9.81,21.8,21.8,21.8h62.82c11.99,0,21.8-9.81,21.8-21.8V25.44z"/>
	<path class="st1" d="M111.17,88.26V61.1L79.1,29.03L79.02,29c-5.26-5.65-12.75-9.19-21.06-9.19c-15.88,0-28.8,12.92-28.8,28.8
		v45.27h0.03l16.18,16.17h44C101.36,110.06,111.17,100.25,111.17,88.26"/>
	<path class="st2" d="M81.46,93.76l-16.54-17.2c12.52-3.12,21.83-14.47,21.83-27.95c0-15.88-12.92-28.8-28.8-28.8
		c-15.88,0-28.8,12.92-28.8,28.8v45.27h10.81V48.61c0-9.92,8.07-18,17.99-18c9.92,0,18,8.07,18,18c0,8.99-6.63,16.47-15.26,17.79
		l3.12-17.53H52.4l-3.98,25.69l17.91,19.32h15.06L81.46,93.76z"/>
</g>
</svg>
